PathFileType	4	(X/Y/Z)	/Users/itak/Documents/Research/Walk-IL/dataset/trc/00487_00167.trc
DataRate	CameraRate	NumFrames	NumMarkers	Units	OrigDataRate	OrigDataStartFrame	OrigNumFrames
100.000000	100.000000	4	53	mm	100.000000	193	516
Frame#	Time	RPSI			LPSI			L3			STRN			T10			C7			CLAV			RBAK			LBAK			LSHO			LUPA			LAEL			LAOL			LWTS			LWPS			LFRA			LIFD			LHPS			LHTS			RSHO			RUPA			RAEL			RAOL			RWTS			RWPS			RFRA			RIFD			RHTS			RHPS			RBHD			LFHD			RFHD			LBHD			LHIP			RHIP			RASI			LASI			LKNE			LTHI			LANK			LTIP			LTOE			LMT1			LMT5			LHEE			RKNE			RTHI			RANK			RTIP			RTOE			RMT1			RMT5			RHEE			
		X1	Y1	Z1	X2	Y2	Z2	X3	Y3	Z3	X4	Y4	Z4	X5	Y5	Z5	X6	Y6	Z6	X7	Y7	Z7	X8	Y8	Z8	X9	Y9	Z9	X10	Y10	Z10	X11	Y11	Z11	X12	Y12	Z12	X13	Y13	Z13	X14	Y14	Z14	X15	Y15	Z15	X16	Y16	Z16	X17	Y17	Z17	X18	Y18	Z18	X19	Y19	Z19	X20	Y20	Z20	X21	Y21	Z21	X22	Y22	Z22	X23	Y23	Z23	X24	Y24	Z24	X25	Y25	Z25	X26	Y26	Z26	X27	Y27	Z27	X28	Y28	Z28	X29	Y29	Z29	X30	Y30	Z30	X31	Y31	Z31	X32	Y32	Z32	X33	Y33	Z33	X34	Y34	Z34	X35	Y35	Z35	X36	Y36	Z36	X37	Y37	Z37	X38	Y38	Z38	X39	Y39	Z39	X40	Y40	Z40	X41	Y41	Z41	X42	Y42	Z42	X43	Y43	Z43	X44	Y44	Z44	X45	Y45	Z45	X46	Y46	Z46	X47	Y47	Z47	X48	Y48	Z48	X49	Y49	Z49	X50	Y50	Z50	X51	Y51	Z51	X52	Y52	Z52	X53	Y53	Z53	

194	1.93	-469.6295471191406	955.2723999023438	222.2674560546875	-475.1702880859375	941.559814453125	79.725830078125	-453.2012329101562	1053.796020507812	181.9467315673828	-179.2655029296875	1242.69775390625	113.3517456054688	-456.9585876464844	1179.192749023438	190.4506225585938	-379.2304992675781	1445.289794921875	189.6810760498047	-213.0103149414062	1356.2353515625	116.6737518310547	-408.9927978515625	1327.5791015625	298.7861328125	-444.4600219726562	1399.305053710938	106.0867462158203	-373.1539001464844	1417.85400390625	-1.942942500114441	-421.5475158691406	1302.821411132812	-91.60738372802734	-425.0645751953125	1088.333618164062	-134.7078857421875	-475.603759765625	1072.635498046875	-44.75921249389648	-322.3210754394531	890.208984375	-118.4131240844727	-383.350341796875	871.7002563476562	-159.1037139892578	-403.8024291992188	1001.273376464844	-151.1774291992188	-315.2866516113281	726.9047241210938	-119.737663269043	-369.9838256835938	793.0045776367188	-158.1726684570312	-304.7677001953125	804.0255126953125	-129.6589050292969	-261.5164184570312	1413.492065429688	315.2239685058594	-250.545166015625	1361.6162109375	395.4542236328125	-208.7184143066406	1093.387939453125	492.8288879394531	-271.4876098632812	1069.613037109375	479.8529663085938	-117.8230743408203	882.849365234375	449.8091735839844	-155.0157623291016	880.3186645507812	529.488525390625	-197.3799591064453	1037.80712890625	510.8951416015625	-99.18684387207031	731.5697021484375	484.3329467773438	-90.45845031738281	790.345458984375	471.9124450683594	-132.1865234375	794.0086669921875	536.5562744140625	-239.7875213623047	1641.92626953125	227.9650726318359	-228.4735870361328	1650.736450195312	21.70672607421875	-149.1126098632812	1656.328979492188	125.6911544799805	-361.3176574707031	1639.220825195312	97.13240051269531	-326.5627746582031	846.3587036132812	-43.96638488769531	-343.984375	858.0475463867188	355.4033508300781	-241.7821502685547	900.1719970703125	288.3755493164062	-243.8102111816406	893.90576171875	36.98081588745117	-167.3383483886719	456.8508911132812	-20.44244003295898	-180.2132873535156	614.7262573242188	-41.59870910644531	-461.7952270507812	149.6628723144531	50.78431701660156	-263.8160705566406	326.8948669433594	-11.25212097167969	-250.3764495849609	52.19868087768555	82.95709228515625	-307.5723876953125	84.61367797851562	124.2661437988281	-334.8293151855469	78.44028472900391	17.40620994567871	-480.5465698242188	181.9107513427734	120.3661117553711	-280.4715270996094	469.0022583007812	330.4132690429688	-288.2581481933594	729.211669921875	364.0787353515625	-344.3512573242188	40.34449768066406	329.2637023925781	-278.0060119628906	322.9173278808594	339.7739562988281	-123.8786773681641	43.15007400512695	302.7257385253906	-183.6940460205078	51.54274749755859	261.0657958984375	-214.9386291503906	36.89556503295898	369.0334167480469	-405.7623596191406	38.08457946777344	278.6717529296875	
195	1.94	-463.3258972167969	955.8402099609375	224.1712036132812	-470.1866455078125	941.8617553710938	81.79271697998047	-446.9275512695312	1054.009765625	184.5622406005859	-174.0575866699219	1242.977416992188	112.6624298095703	-450.4409484863281	1179.401733398438	193.6638336181641	-372.7722778320312	1445.539916992188	192.2730560302734	-207.8330688476562	1356.516235351562	116.3057632446289	-400.5431213378906	1327.663208007812	301.7417602539062	-439.3372802734375	1399.502197265625	109.9174957275391	-370.0287170410156	1418.265991210938	0.6097687482833862	-420.7834777832031	1303.352661132812	-87.94879913330078	-425.0643310546875	1088.928100585938	-131.1236877441406	-473.4964599609375	1072.870239257812	-39.9219970703125	-319.1031799316406	892.7953491210938	-117.1744155883789	-380.6212463378906	872.9481811523438	-156.081787109375	-403.3356628417969	1002.083435058594	-148.0206298828125	-307.9064636230469	729.7752685546875	-118.8955001831055	-365.5711975097656	794.5533447265625	-155.5537109375	-299.7314453125	807.2078247070312	-129.1348876953125	-252.9617919921875	1413.80810546875	315.6332702636719	-240.1953125	1362.112670898438	395.6488037109375	-193.5030517578125	1094.8037109375	492.6143493652344	-256.3735961914062	1070.371826171875	480.9509582519531	-101.5892486572266	884.6292724609375	449.4701232910156	-137.3932647705078	882.5545043945312	529.8034057617188	-181.3304748535156	1039.500366210938	510.8078918457031	-81.67636871337891	733.6990356445312	484.9378051757812	-73.42044067382812	792.365234375	471.8509521484375	-113.9648513793945	796.4434814453125	537.2520751953125	-232.4010009765625	1642.182373046875	227.9841766357422	-224.7768859863281	1650.845458984375	21.51307487487793	-143.5565032958984	1656.430419921875	124.0860366821289	-356.2274475097656	1639.542602539062	99.30275726318359	-322.3534240722656	847.3335571289062	-43.39648056030273	-337.1420288085938	858.2357788085938	356.1342163085938	-235.0577697753906	899.974365234375	288.5014038085938	-239.3241119384766	894.4786987304688	37.20752334594727	-159.8325042724609	458.5250549316406	-22.4150333404541	-174.5107269287109	616.96240234375	-43.34140014648438	-438.5172729492188	138.8084564208984	58.17405319213867	-250.7307586669922	324.7968139648438	-10.15399360656738	-221.2545928955078	52.1866455078125	83.24318695068359	-278.793212890625	81.81464385986328	126.4690399169922	-309.3680419921875	74.09896087646484	20.66482162475586	-456.4891967773438	170.2970581054688	128.3526611328125	-277.8282775878906	468.7378540039062	330.5066833496094	-282.4268188476562	729.0822143554688	364.158447265625	-344.3073425292969	40.49292373657227	329.1654357910156	-276.3606872558594	322.645263671875	339.7389526367188	-123.8354873657227	43.12689971923828	302.7064514160156	-183.6427001953125	51.4445686340332	260.9982299804688	-214.9220275878906	36.89550018310547	368.9850463867188	-405.6630249023438	38.20276260375977	278.5575256347656	
196	1.95	-456.9774780273438	956.3678588867188	226.0966644287109	-465.2576293945312	942.1419067382812	83.92143249511719	-440.6835327148438	1054.1279296875	187.0977935791016	-168.9092712402344	1243.163696289062	111.8913192749023	-443.9666137695312	1179.500366210938	196.7078399658203	-366.3900146484375	1445.693237304688	194.6312561035156	-202.7257080078125	1356.694946289062	115.8573532104492	-392.248779296875	1327.639526367188	304.4598999023438	-434.2563781738281	1399.561157226562	113.5232315063477	-366.8846435546875	1418.524536132812	3.005697011947632	-419.7714538574219	1303.665405273438	-84.4168701171875	-424.822265625	1089.32958984375	-127.5790634155273	-471.2323608398438	1072.94091796875	-35.25605773925781	-315.8741149902344	895.1303100585938	-115.9213333129883	-377.7821655273438	874.0360107421875	-153.1873474121094	-402.6495971679688	1002.704711914062	-144.9236602783203	-300.8471984863281	732.4535522460938	-118.1023330688477	-361.2396850585938	795.9768676757812	-153.0944061279297	-294.9010009765625	810.1182250976562	-128.5909271240234	-244.6306457519531	1414.041870117188	315.8883666992188	-230.1650848388672	1362.521240234375	395.6713256835938	-178.6986236572266	1096.164794921875	492.1277160644531	-241.5609130859375	1071.033203125	481.6016540527344	-85.45584869384766	886.5048828125	448.8326721191406	-120.0297775268555	884.7906494140625	529.7171630859375	-165.6814117431641	1041.1396484375	510.4071044921875	-64.14105224609375	735.9188232421875	485.1571350097656	-56.43561935424805	794.4976806640625	471.4702453613281	-95.92984771728516	798.902587890625	537.5083618164062	-225.1292877197266	1642.392333984375	227.8258514404297	-221.2021636962891	1650.829345703125	21.18982887268066	-138.1591491699219	1656.45263671875	122.3292236328125	-351.1936645507812	1639.766967773438	101.334114074707	-318.4297180175781	848.1439208984375	-42.85786056518555	-330.1797180175781	858.3794555664062	356.7597351074219	-228.2936096191406	899.685546875	288.3969116210938	-234.8766784667969	894.9520874023438	37.18195724487305	-153.0126800537109	460.0089416503906	-24.43782806396484	-169.526611328125	618.7599487304688	-45.15786743164062	-414.6716003417969	128.0739288330078	64.27578735351562	-237.9392242431641	322.6544189453125	-9.618038177490234	-192.2904968261719	52.39253234863281	81.42745208740234	-249.9983673095703	79.07174682617188	126.7246780395508	-283.859619140625	70.15948486328125	22.11892318725586	-431.7212219238281	158.5323486328125	135.1296539306641	-275.1075744628906	468.4495849609375	330.52685546875	-276.5154113769531	728.904541015625	364.110595703125	-344.2622985839844	40.6346321105957	329.060302734375	-274.6856384277344	322.3547973632812	339.6645812988281	-123.796989440918	43.10580444335938	302.6872253417969	-183.5975189208984	51.34225082397461	260.9236450195312	-214.9089813232422	36.89824676513672	368.9356689453125	-405.5851440429688	38.31679916381836	278.4522094726562	
197	1.96	-450.59521484375	956.8514404296875	228.0421295166016	-460.3685607910156	942.4097290039062	86.09801483154297	-434.4536437988281	1054.164916992188	189.5337524414062	-163.8150787353516	1243.266967773438	111.0280685424805	-437.5373229980469	1179.50244140625	199.5809326171875	-360.0715637207031	1445.751342773438	196.7569885253906	-197.6745300292969	1356.783325195312	115.3249053955078	-384.1028442382812	1327.526489257812	306.9452819824219	-429.2042541503906	1399.498657226562	116.8989944458008	-363.7223510742188	1418.638671875	5.235819339752197	-418.5116271972656	1303.776611328125	-81.03837585449219	-424.3248901367188	1089.537475585938	-124.0894622802734	-468.7942504882812	1072.85400390625	-30.7894344329834	-312.6394348144531	897.1647338867188	-114.6411285400391	-374.8512878417969	874.9474487304688	-150.4265594482422	-401.6964416503906	1003.135864257812	-141.8964385986328	-294.1564331054688	734.8766479492188	-117.337646484375	-357.0202941894531	797.2411499023438	-150.7980346679688	-290.2822570800781	812.6986083984375	-128.0025939941406	-236.4983215332031	1414.196899414062	315.9862976074219	-220.4296722412109	1362.839599609375	395.5219421386719	-164.3417816162109	1097.465209960938	491.3931274414062	-227.1020355224609	1071.591796875	481.8367919921875	-69.45642852783203	888.4993286132812	447.8811645507812	-102.9554214477539	887.0270385742188	529.2210693359375	-150.4725189208984	1042.712646484375	509.7155456542969	-46.55742263793945	738.2633666992188	484.9564208984375	-39.49240112304688	796.7811279296875	470.7453308105469	-78.07958984375	801.3963012695312	537.3077392578125	-217.9830627441406	1642.558837890625	227.4940643310547	-217.7366333007812	1650.717529296875	20.74558258056641	-132.9173431396484	1656.41552734375	120.4347457885742	-346.2137451171875	1639.892822265625	103.2215042114258	-314.7796020507812	848.8056640625	-42.35891723632812	-323.0921325683594	858.472900390625	357.2763977050781	-221.5118560791016	899.3123168945312	288.071533203125	-230.4719696044922	895.32958984375	36.92466735839844	-146.8672027587891	461.29443359375	-26.44179534912109	-165.2332000732422	620.1216430664062	-47.01914215087891	-390.3466186523438	117.5579223632812	68.99979400634766	-225.4777069091797	320.5002136230469	-9.632989883422852	-163.6661376953125	52.86972045898438	77.56763458251953	-221.2899169921875	76.48973846435547	125.0598983764648	-258.4450988769531	66.67752075195312	21.77176284790039	-406.3133544921875	146.7321472167969	140.5840454101562	-272.2944641113281	468.1402587890625	330.477783203125	-270.5198364257812	728.6803588867188	363.9385375976562	-344.21435546875	40.77141189575195	328.9505310058594	-272.9664916992188	322.049072265625	339.5493469238281	-123.7591247558594	43.08475112915039	302.6671447753906	-183.5538177490234	51.23807144165039	260.8407897949219	-214.8993225097656	36.90373611450195	368.8866271972656	-405.5302734375	38.43260955810547	278.3563537597656	
